<svg width="42" height="43" viewBox="0 0 42 43" fill="none" xmlns="http://www.w3.org/2000/svg">
<path d="M11.1774 28.7666V18.6086C11.1774 14.1475 11.1774 11.9169 12.6158 10.531C14.0543 9.14513 16.3695 9.14513 20.9999 9.14513C25.6303 9.14513 27.9456 9.14513 29.3839 10.531C30.8225 11.9169 30.8225 14.1475 30.8225 18.6086V28.7666C30.8225 31.5979 30.8225 33.0134 29.8736 33.5201C28.0359 34.5013 24.5891 31.2277 22.9521 30.242C22.0028 29.6703 21.5281 29.3845 20.9999 29.3845C20.4717 29.3845 19.997 29.6703 19.0477 30.242C17.4108 31.2277 13.9639 34.5013 12.1263 33.5201C11.1774 33.0134 11.1774 31.5979 11.1774 28.7666Z" stroke="white" stroke-width="1.5" stroke-linecap="round" stroke-linejoin="round"/>
</svg>
