<svg width="24" height="24" viewBox="0 0 24 24" fill="none" xmlns="http://www.w3.org/2000/svg">
<path d="M14.491 15.5H14.5M9.5 15.5H9.50897" stroke="white" stroke-width="2" stroke-linecap="square" stroke-linejoin="round"/>
<path d="M4 9V8.25H3.25V9H4ZM4 22H3.25V22.75H4V22ZM20 22V22.75H20.75V22H20ZM20 9H20.75V8.25H20V9ZM8.25001 9V6.5H6.75001V9H8.25001ZM15.75 6.5V9H17.25V6.5H15.75ZM12 2.75C14.0711 2.75 15.75 4.42893 15.75 6.5H17.25C17.25 3.6005 14.8995 1.25 12 1.25V2.75ZM8.25001 6.5C8.25001 4.42893 9.92894 2.75 12 2.75V1.25C9.10051 1.25 6.75001 3.6005 6.75001 6.5H8.25001ZM3.25 9V22H4.75V9H3.25ZM4 22.75H20V21.25H4V22.75ZM19.25 9V22H20.75V9H19.25ZM20 8.25H4V9.75H20V8.25Z" fill="white"/>
</svg>
