<svg width="78" height="19" viewBox="0 0 78 19" fill="none" xmlns="http://www.w3.org/2000/svg">
<path d="M6.97933 12.4871V6.93074C6.40387 6.4726 5.68621 6.19277 4.92698 6.19277C3.28376 6.19277 2.31929 7.40841 2.31929 9.69914C2.31929 11.8896 3.22205 13.104 4.8854 13.104C5.62451 13.104 6.38375 12.8658 6.97933 12.4871ZM10.0176 13.9214L7.86197 15.0563L7.1631 13.583C6.44545 14.4394 5.37769 15.0563 4.00275 15.0563C1.37494 15.0563 0 12.9452 0 9.67831C0 6.1342 1.62176 4.22092 4.20799 4.22092C5.41928 4.22092 6.36362 4.65954 6.97933 5.47691V0.257706H9.19533V12.3283L10.0176 13.9214ZM13.8755 8.38457H19.1097C19.0077 6.83052 18.2485 6.09385 16.8319 6.09385C15.292 6.09385 14.2243 6.95027 13.8755 8.38457ZM21.0185 9.87745H13.7521C13.897 11.6905 15.3537 12.9048 17.6529 12.9048C18.8226 12.9048 20.0956 12.6667 20.9568 12.228L20.2592 14.4394C19.5416 14.8168 18.3303 15.0563 16.9339 15.0563C13.63 15.0563 11.4529 12.8853 11.4529 9.57939C11.4529 6.25264 13.5267 4.22222 16.8319 4.22222C19.5617 4.22222 21.2854 5.73592 21.2854 8.18544C21.2854 8.7425 21.1835 9.39978 21.0185 9.87745ZM26.4176 14.7973L22.2298 4.48123H24.6725L27.4022 11.6905L27.7107 12.5873H27.7926L28.0997 11.6905L30.8107 4.48123H33.2118L29.0441 14.7973H26.4176ZM40.4782 4.50075H45.2805L44.9733 6.15372H40.1697L38.4862 15.4351C38.0141 18.0238 36.2287 19 33.7243 19C32.5747 19 32.0408 18.8412 31.4667 18.7215L31.4251 17.0477C32.0006 17.1479 32.678 17.2078 33.6223 17.2078C35.1207 17.2078 36.1052 16.6299 36.3319 15.4155L38.0141 6.15372H34.6686L34.9771 4.50075H38.3226L38.4862 3.54412C38.9584 0.97486 40.7237 0 43.208 0C44.3777 0 44.9733 0.158789 45.4857 0.278531L45.5273 1.99137C44.9532 1.8521 44.2757 1.79223 43.3314 1.79223C41.8532 1.79223 40.8686 2.36882 40.6419 3.58446L40.4782 4.50075ZM48.0518 8.38457H53.286C53.184 6.83052 52.4234 6.09385 51.0083 6.09385C49.4683 6.09385 48.4006 6.95027 48.0518 8.38457ZM55.1948 9.87745H47.9284C48.0719 11.6905 49.53 12.9048 51.8292 12.9048C52.9989 12.9048 54.2719 12.6667 55.1331 12.228L54.4355 14.4394C53.7179 14.8168 52.5066 15.0563 51.1102 15.0563C47.805 15.0563 45.6292 12.8853 45.6292 9.57939C45.6292 6.25264 47.703 4.22222 51.0083 4.22222C53.738 4.22222 55.4617 5.73592 55.4617 8.18544C55.4617 8.7425 55.3598 9.39978 55.1948 9.87745ZM57.5758 14.1804L57.4322 11.8701C58.3766 12.5066 60.1003 13.0649 61.9072 13.0649C63.2821 13.0649 64.268 12.6458 64.268 11.71C64.268 9.75901 57.6576 11.5708 57.6576 7.58802C57.6576 5.73462 59.0956 4.16235 62.5229 4.16235C64.6168 4.16235 66.2171 4.65954 66.2171 5.89471C66.2171 6.27346 66.0535 6.59234 65.8898 6.8904C64.9857 6.4726 63.5692 6.17324 62.3793 6.17324C60.7375 6.17324 59.8749 6.77065 59.8749 7.42793C59.8749 9.16029 66.5659 7.6479 66.5659 11.5317C66.5659 13.7014 64.5967 15.0563 61.6604 15.0563C59.6697 15.0563 58.1714 14.4394 57.5758 14.1804ZM78 12.6068L77.5479 14.6177C77.0141 14.8376 75.9463 15.0563 74.9617 15.0563C72.3138 15.0563 71.1857 13.7222 71.1857 11.8298V6.29298H68.1675V4.48123H71.1857V1.65297H73.4017V4.48123H77.6915V6.29298H73.4017V11.1725C73.4017 12.5066 74.1207 13.104 75.3722 13.104C76.0912 13.104 77.4044 12.9452 78 12.6068Z" fill="#2B83FC"/>
</svg>
