<svg width="25" height="25" viewBox="0 0 25 25" fill="none" xmlns="http://www.w3.org/2000/svg">
<path d="M4.12988 6.28125C3.71567 6.28125 3.37988 6.61704 3.37988 7.03125C3.37988 7.44547 3.71567 7.78125 4.12988 7.78125V6.28125ZM21.875 7.03125L22.5918 7.25178C22.6618 7.0243 22.6197 6.7771 22.4783 6.58566C22.3369 6.39422 22.113 6.28125 21.875 6.28125V7.03125ZM19.21 15.6943L19.9267 15.9151L19.9268 15.9149L19.21 15.6943ZM17.7158 16.7969L17.7162 16.0469H17.7158V16.7969ZM8.09863 16.7969V16.0469H8.09831L8.09863 16.7969ZM6.5957 15.6641L5.87452 15.87L5.87462 15.8703L6.5957 15.6641ZM3.17773 3.69141L3.89892 3.48553L3.89882 3.48517L3.17773 3.69141ZM2.42383 3.125V3.87501L2.42649 3.875L2.42383 3.125ZM1.17188 2.375C0.757661 2.375 0.421875 2.71079 0.421875 3.125C0.421875 3.53922 0.757661 3.875 1.17188 3.875V2.375ZM9.01562 21.0938C9.01562 21.7582 8.47697 22.2969 7.8125 22.2969V23.7969C9.30539 23.7969 10.5156 22.5866 10.5156 21.0938H9.01562ZM7.8125 22.2969C7.14803 22.2969 6.60938 21.7582 6.60938 21.0938H5.10937C5.10937 22.5866 6.3196 23.7969 7.8125 23.7969V22.2969ZM6.60938 21.0938C6.60938 20.4293 7.14803 19.8906 7.8125 19.8906V18.3906C6.31961 18.3906 5.10937 19.6009 5.10937 21.0938H6.60938ZM7.8125 19.8906C8.47697 19.8906 9.01562 20.4293 9.01562 21.0938H10.5156C10.5156 19.6009 9.30539 18.3906 7.8125 18.3906V19.8906ZM19.1719 21.0938C19.1719 21.7582 18.6332 22.2969 17.9688 22.2969V23.7969C19.4616 23.7969 20.6719 22.5866 20.6719 21.0938H19.1719ZM17.9688 22.2969C17.3043 22.2969 16.7656 21.7582 16.7656 21.0938H15.2656C15.2656 22.5866 16.4759 23.7969 17.9688 23.7969V22.2969ZM16.7656 21.0938C16.7656 20.4293 17.3043 19.8906 17.9688 19.8906V18.3906C16.4759 18.3906 15.2656 19.6009 15.2656 21.0938H16.7656ZM17.9688 19.8906C18.6332 19.8906 19.1719 20.4293 19.1719 21.0938H20.6719C20.6719 19.6009 19.4616 18.3906 17.9688 18.3906V19.8906ZM4.12988 7.78125H21.875V6.28125H4.12988V7.78125ZM21.1582 6.81073L18.4931 15.4738L19.9268 15.9149L22.5918 7.25178L21.1582 6.81073ZM18.4932 15.4736C18.442 15.6397 18.339 15.785 18.1991 15.8882L19.0898 17.0951C19.4878 16.8014 19.7811 16.3878 19.9267 15.9151L18.4932 15.4736ZM18.1991 15.8882C18.0593 15.9913 17.89 16.047 17.7162 16.0469L17.7154 17.5469C18.21 17.5472 18.6917 17.3888 19.0898 17.0951L18.1991 15.8882ZM17.7158 16.0469H8.09863V17.5469H17.7158V16.0469ZM8.09831 16.0469C7.92172 16.047 7.74992 15.9895 7.60891 15.8832L6.70605 17.0811C7.1074 17.3836 7.59637 17.5471 8.09896 17.5469L8.09831 16.0469ZM7.60891 15.8832C7.4679 15.7769 7.36535 15.6276 7.31679 15.4578L5.87462 15.8703C6.01283 16.3535 6.3047 16.7786 6.70605 17.0811L7.60891 15.8832ZM7.31689 15.4582L3.89892 3.48553L2.45655 3.8973L5.87452 15.87L7.31689 15.4582ZM3.89882 3.48517C3.80708 3.16441 3.61309 2.8824 3.34637 2.68201L2.44538 3.88127C2.45082 3.88536 2.45478 3.89111 2.45665 3.89766L3.89882 3.48517ZM3.34637 2.68201C3.07964 2.48162 2.75477 2.37382 2.42116 2.37501L2.42649 3.875C2.4333 3.87498 2.43993 3.87718 2.44538 3.88127L3.34637 2.68201ZM2.42383 2.375H1.17188V3.875H2.42383V2.375Z" fill="#2B82FB"/>
</svg>
