<svg width="13" height="13" viewBox="0 0 13 13" fill="none" xmlns="http://www.w3.org/2000/svg">
<g clip-path="url(#clip0_519_5147)">
<path d="M10.3427 10.3429C12.465 8.22058 12.465 4.77967 10.3427 2.65738C8.2204 0.535088 4.77949 0.535088 2.6572 2.65738C0.534908 4.77967 0.534908 8.22058 2.6572 10.3429C4.77949 12.4652 8.2204 12.4652 10.3427 10.3429Z" fill="#E9B522"/>
<path d="M6.50016 13C2.91595 13 0 10.0841 0 6.49984C0 2.91562 2.91595 0 6.50016 0C10.0844 0 13.0003 2.91595 13.0003 6.49984C13.0003 10.0837 10.0841 13 6.50016 13ZM6.50016 1.06565C3.5037 1.06565 1.06565 3.50337 1.06565 6.50016C1.06565 9.49663 3.5037 11.9347 6.50016 11.9347C9.49663 11.9347 11.9347 9.49663 11.9347 6.50016C11.9344 3.50337 9.49663 1.06565 6.50016 1.06565Z" fill="#F7DE61"/>
<path d="M0.396399 6.49984C0.396399 2.98212 3.20542 0.108553 6.69836 0.00325986C6.63251 0.00130394 6.56666 0 6.50016 0C2.91595 0 0 2.91595 0 6.49984C0 10.0837 2.91595 13 6.50016 13C6.56634 13 6.63251 12.9987 6.69836 12.9967C3.20542 12.8914 0.396399 10.0179 0.396399 6.49984Z" fill="#FFF2BD"/>
<path d="M6.50008 1.06567C6.44206 1.06567 6.38436 1.06698 6.32666 1.06861C9.24326 1.16054 11.5877 3.56142 11.5877 6.49986C11.5877 9.4383 9.24326 11.8392 6.32666 11.9314C6.38436 11.9334 6.44206 11.9344 6.50008 11.9344C9.49655 11.9344 11.9346 9.49633 11.9346 6.49986C11.9343 3.5034 9.49655 1.06567 6.50008 1.06567Z" fill="#CE9811"/>
<path d="M2.28504 6.86549V6.13144C2.20952 6.07092 2.11534 6.03395 2.01571 6.03395C1.80007 6.03395 1.6735 6.19455 1.6735 6.49717C1.6735 6.78656 1.79197 6.94699 2.01025 6.94699C2.10725 6.94699 2.20688 6.91552 2.28504 6.86549ZM2.68375 7.05497L2.40087 7.20491L2.30916 7.01027C2.21498 7.12341 2.07486 7.20491 1.89442 7.20491C1.54957 7.20491 1.36914 6.92601 1.36914 6.49442C1.36914 6.02621 1.58196 5.77345 1.92136 5.77345C2.08031 5.77345 2.20424 5.83139 2.28504 5.93938V5.24987H2.57585V6.84451L2.68375 7.05497ZM3.19003 6.32351H3.87691C3.86353 6.1182 3.76389 6.02088 3.578 6.02088C3.37592 6.02088 3.23579 6.13402 3.19003 6.32351ZM4.1274 6.52073H3.17383C3.19284 6.76025 3.38401 6.92068 3.68573 6.92068C3.83924 6.92068 4.00629 6.88922 4.1193 6.83127L4.02777 7.12341C3.93359 7.17327 3.77463 7.20491 3.59138 7.20491C3.15781 7.20491 2.87211 6.9181 2.87211 6.48136C2.87211 6.04186 3.14426 5.77362 3.578 5.77362C3.93623 5.77362 4.16243 5.97359 4.16243 6.2972C4.16243 6.37079 4.14905 6.45763 4.1274 6.52073ZM4.83593 7.17069L4.28636 5.80784H4.60691L4.96514 6.76025L5.00563 6.87873H5.01637L5.05668 6.76025L5.41244 5.80784H5.72754L5.18061 7.17069H4.83593ZM6.68111 5.81042H7.31131L7.271 6.02879H6.64062L6.4197 7.25495C6.35774 7.59695 6.12344 7.72591 5.79479 7.72591C5.64392 7.72591 5.57386 7.70494 5.49852 7.68912L5.49306 7.46799C5.56858 7.48123 5.65748 7.48914 5.78141 7.48914C5.97804 7.48914 6.10724 7.4128 6.13699 7.25237L6.35774 6.02879H5.91871L5.9592 5.81042H6.39823L6.4197 5.68403C6.48167 5.34461 6.71333 5.21582 7.03934 5.21582C7.19284 5.21582 7.271 5.2368 7.33824 5.25262L7.3437 5.4789C7.26836 5.4605 7.17946 5.45259 7.05553 5.45259C6.86154 5.45259 6.73234 5.52877 6.70259 5.68936L6.68111 5.81042ZM7.67499 6.32351H8.36187C8.3485 6.1182 8.24868 6.02088 8.06297 6.02088C7.86088 6.02088 7.72076 6.13402 7.67499 6.32351ZM8.61237 6.52073H7.6588C7.67763 6.76025 7.86898 6.92068 8.1707 6.92068C8.3242 6.92068 8.49126 6.88922 8.60427 6.83127L8.51273 7.12341C8.41856 7.17327 8.2596 7.20491 8.07635 7.20491C7.6426 7.20491 7.35708 6.9181 7.35708 6.48136C7.35708 6.04186 7.62922 5.77362 8.06297 5.77362C8.4212 5.77362 8.6474 5.97359 8.6474 6.2972C8.6474 6.37079 8.63402 6.45763 8.61237 6.52073ZM8.92483 7.08919L8.90599 6.78398C9.02992 6.86807 9.25612 6.94183 9.49324 6.94183C9.67367 6.94183 9.80306 6.88646 9.80306 6.76283C9.80306 6.50508 8.93556 6.74444 8.93556 6.21828C8.93556 5.97342 9.12427 5.76571 9.57404 5.76571C9.84882 5.76571 10.0588 5.83139 10.0588 5.99457C10.0588 6.04461 10.0374 6.08674 10.0159 6.12611C9.89723 6.07092 9.71134 6.03137 9.5552 6.03137C9.33974 6.03137 9.22655 6.11029 9.22655 6.19713C9.22655 6.42599 10.1046 6.22619 10.1046 6.73928C10.1046 7.02591 9.84618 7.20491 9.46085 7.20491C9.19961 7.20491 9.00299 7.12341 8.92483 7.08919ZM11.6051 6.88131L11.5458 7.14697C11.4757 7.17602 11.3356 7.20491 11.2064 7.20491C10.8589 7.20491 10.7109 7.02867 10.7109 6.77865V6.04719H10.3148V5.80784H10.7109V5.43419H11.0017V5.80784H11.5646V6.04719H11.0017V6.69182C11.0017 6.86807 11.096 6.94699 11.2603 6.94699C11.3546 6.94699 11.5269 6.92601 11.6051 6.88131Z" fill="#F7DE61"/>
<path fill-rule="evenodd" clip-rule="evenodd" d="M5.93168 1.8599L5.02747 2.38172C4.90393 2.4535 4.86098 2.61175 4.93275 2.73588C5.00452 2.86001 5.16278 2.90237 5.28632 2.83059L6.19053 2.30877C6.31466 2.237 6.35702 2.07875 6.28525 1.95521C6.21347 1.83108 6.05522 1.78872 5.93168 1.86049V1.8599Z" fill="#F7DE61"/>
<path fill-rule="evenodd" clip-rule="evenodd" d="M6.18223 2.90828L5.27802 2.38588C5.15389 2.3141 4.99564 2.35705 4.92445 2.48059C4.85268 2.60472 4.89562 2.76297 5.01917 2.83416L5.92338 3.35598C6.04751 3.42775 6.20576 3.3848 6.27695 3.26126C6.34872 3.13713 6.30577 2.97888 6.18223 2.9077V2.90828Z" fill="#F7DE61"/>
<path fill-rule="evenodd" clip-rule="evenodd" d="M6.78723 2.91587L7.69145 2.39406C7.81558 2.32228 7.97383 2.36523 8.04501 2.48877C8.11678 2.6129 8.07384 2.77115 7.9503 2.84234L7.04608 3.36416C6.92195 3.43593 6.7637 3.39298 6.69252 3.26944C6.62075 3.14531 6.66369 2.98706 6.78723 2.91587Z" fill="#F7DE61"/>
<path fill-rule="evenodd" clip-rule="evenodd" d="M7.05402 1.86818L7.95824 2.39C8.08237 2.46177 8.12472 2.62003 8.05295 2.74357C7.98118 2.8677 7.82293 2.91006 7.69939 2.83828L6.79517 2.31647C6.67104 2.24469 6.62869 2.08644 6.70046 1.9629C6.77223 1.83877 6.93048 1.79641 7.05402 1.86818Z" fill="#F7DE61"/>
</g>
<defs>
<clipPath id="clip0_519_5147">
<rect width="13" height="13" fill="white"/>
</clipPath>
</defs>
</svg>
