<svg width="118" height="29" viewBox="0 0 118 29" fill="none" xmlns="http://www.w3.org/2000/svg">
<path d="M10.5585 19.0592V10.5785C9.6879 9.87923 8.60222 9.45212 7.45364 9.45212C4.96774 9.45212 3.50867 11.3076 3.50867 14.8039C3.50867 18.1473 4.87439 20.0008 7.39073 20.0008C8.50887 20.0008 9.65746 19.6373 10.5585 19.0592ZM15.1548 21.2484L11.8938 22.9807L10.8365 20.7319C9.75081 22.039 8.13548 22.9807 6.05545 22.9807C2.08004 22.9807 0 19.7585 0 14.7722C0 9.36272 2.45343 6.44246 6.36593 6.44246C8.19839 6.44246 9.62702 7.11193 10.5585 8.3595V0.393341H13.9109V18.8168L15.1548 21.2484ZM20.9911 12.7975H28.9095C28.7552 10.4255 27.6067 9.30114 25.4637 9.30114C23.1341 9.30114 21.5187 10.6083 20.9911 12.7975ZM31.7972 15.0761H20.8044C21.0236 17.8434 23.2274 19.6969 26.7057 19.6969C28.4752 19.6969 30.401 19.3333 31.7038 18.6639L30.6486 22.039C29.5629 22.6152 27.7304 22.9807 25.6179 22.9807C20.6198 22.9807 17.3262 19.6671 17.3262 14.6212C17.3262 9.5435 20.4635 6.44444 25.4637 6.44444C29.5934 6.44444 32.201 8.75483 32.201 12.4936C32.201 13.3438 32.0468 14.347 31.7972 15.0761ZM39.9651 22.5854L33.6296 6.83977H37.325L41.4546 17.8434L41.9214 19.2122H42.0452L42.5099 17.8434L46.6111 6.83977H50.2436L43.9385 22.5854H39.9651ZM61.2363 6.86957H68.5012L68.0365 9.39252H60.7696L58.2228 23.5588C57.5085 27.5101 54.8075 29 51.0187 29C49.2796 29 48.472 28.7576 47.6034 28.5749L47.5405 26.0201C48.4111 26.1731 49.4359 26.2645 50.8645 26.2645C53.1313 26.2645 54.6208 25.3824 54.9637 23.529L57.5085 9.39252H52.4474L52.9141 6.86957H57.9752L58.2228 5.40944C58.9371 1.48794 61.6077 0 65.3659 0C67.1355 0 68.0365 0.242362 68.8117 0.425126L68.8746 3.03946C68.0061 2.82689 66.9813 2.73551 65.5526 2.73551C63.3163 2.73551 61.8268 3.61556 61.4839 5.47102L61.2363 6.86957ZM72.6937 12.7975H80.6121C80.4579 10.4255 79.3073 9.30114 77.1663 9.30114C74.8367 9.30114 73.2214 10.6083 72.6937 12.7975ZM83.4998 15.0761H72.5071C72.7242 17.8434 74.93 19.6969 78.4083 19.6969C80.1778 19.6969 82.1036 19.3333 83.4064 18.6639L82.3512 22.039C81.2655 22.6152 79.4331 22.9807 77.3206 22.9807C72.3204 22.9807 69.0288 19.6671 69.0288 14.6212C69.0288 9.5435 72.1661 6.44444 77.1663 6.44444C81.296 6.44444 83.9036 8.75483 83.9036 12.4936C83.9036 13.3438 83.7494 14.347 83.4998 15.0761ZM87.1018 21.6437L86.8847 18.1175C88.3133 19.089 90.921 19.9412 93.6544 19.9412C95.7345 19.9412 97.226 19.3015 97.226 17.8732C97.226 14.8953 87.2256 17.6606 87.2256 11.5817C87.2256 8.75284 89.401 6.35306 94.5859 6.35306C97.7536 6.35306 100.175 7.11193 100.175 8.99719C100.175 9.57528 99.927 10.062 99.6794 10.5169C98.3117 9.87923 96.1687 9.42232 94.3688 9.42232C91.8849 9.42232 90.58 10.3342 90.58 11.3374C90.58 13.9815 100.702 11.6731 100.702 17.601C100.702 20.9127 97.7232 22.9807 93.2811 22.9807C90.2696 22.9807 88.0028 22.039 87.1018 21.6437ZM118 19.2419L117.316 22.3112C116.508 22.6469 114.893 22.9807 113.404 22.9807C109.398 22.9807 107.691 20.9444 107.691 18.056V9.60508H103.125V6.83977H107.691V2.52295H111.044V6.83977H117.533V9.60508H111.044V17.0527C111.044 19.089 112.131 20.0008 114.025 20.0008C115.112 20.0008 117.099 19.7585 118 19.2419Z" fill="#FFBA00"/>
</svg>
